<svg width="500" height="240" viewBox="0 0 500 240" fill="none" xmlns="http://www.w3.org/2000/svg">
<path d="M79.8499 117.234H108.275V88.8085H23V117.234H51.4249V145.659H23V202.508H51.4249V174.083H79.8499L108.275 202.508V145.659H79.8499V117.234Z" fill="#2E6FF2"/>
<path d="M136.7 117.234H108.275V145.659H136.7V174.083H165.125V88.8085H136.7V117.234Z" fill="#2E6FF2"/>
<path d="M178.735 88.8085V174.083H207.16V117.234L178.735 88.8085Z" fill="#2E6FF2"/>
<path d="M221.372 187.89H178.735V216.315H278.222V187.89H249.797V136.7H221.372V187.89Z" fill="#FFC533"/>
<path d="M192.947 23V51.425H249.797V79.8499H192.947L221.372 108.275H249.797V136.7H278.222V23H192.947Z" fill="#FFC533"/>
<path d="M405.729 131.04H377.304V102.615H348.879V131.04H320.454L292.029 102.615V216.315H377.304V159.465H405.729V187.89H434.154V102.615H405.729V131.04ZM348.879 187.89H320.454V159.465H348.879V187.89Z" fill="#15BF70"/>
<path d="M447.764 102.615V187.89H476.189V131.04L447.764 102.615Z" fill="#15BF70"/>
</svg>
